<mxfile host="app.diagrams.net" modified="2023-06-23T19:37:36.699Z" agent="Mozilla/5.0 (X11; Linux x86_64; rv:109.0) Gecko/20100101 Firefox/114.0" version="21.5.0" etag="0wvDSOotgFBIki5ExGlE" type="github">
  <diagram name="Seite-1" id="8-7M1oQOfn6xRrpXZHGh">
    <mxGraphModel>
      <root>
        <mxCell id="0" />
        <mxCell id="1" parent="0" />
      </root>
    </mxGraphModel>
  </diagram>
</mxfile>
